<mxfile host="Electron" agent="Mozilla/5.0 (Windows NT 10.0; Win64; x64) AppleWebKit/537.36 (KHTML, like Gecko) draw.io/24.7.17 Chrome/128.0.6613.36 Electron/32.0.1 Safari/537.36" version="24.7.17">
  <diagram name="Pagina-1" id="SzeBKCRsk_AWwFdmzQ80">
    <mxGraphModel dx="1290" dy="621" grid="1" gridSize="10" guides="1" tooltips="1" connect="1" arrows="1" fold="1" page="1" pageScale="1" pageWidth="827" pageHeight="1169" math="0" shadow="0">
      <root>
        <mxCell id="0" />
        <mxCell id="1" parent="0" />
        <mxCell id="gKEJSpMiYyEBTIHVQDG1-4" value="" style="whiteSpace=wrap;html=1;shape=umlActor;verticalLabelPosition=bottom;verticalAlign=top;outlineConnect=0;" parent="1" vertex="1">
          <mxGeometry x="95.62" y="65" width="20" height="40" as="geometry" />
        </mxCell>
        <mxCell id="gKEJSpMiYyEBTIHVQDG1-5" value="" style="ellipse;whiteSpace=wrap;html=1;fillColor=none;" parent="1" vertex="1">
          <mxGeometry x="77.87" y="60" width="55.5" height="50" as="geometry" />
        </mxCell>
        <mxCell id="gKEJSpMiYyEBTIHVQDG1-6" value="Home" style="ellipse;whiteSpace=wrap;html=1;fillColor=none;" parent="1" vertex="1">
          <mxGeometry x="52.25" y="140" width="87.75" height="20" as="geometry" />
        </mxCell>
        <mxCell id="gKEJSpMiYyEBTIHVQDG1-7" value="Explore&lt;span style=&quot;color: rgba(0, 0, 0, 0); font-family: monospace; font-size: 0px; text-align: start; text-wrap-mode: nowrap;&quot;&gt;%3CmxGraphModel%3E%3Croot%3E%3CmxCell%20id%3D%220%22%2F%3E%3CmxCell%20id%3D%221%22%20parent%3D%220%22%2F%3E%3CmxCell%20id%3D%222%22%20value%3D%22Home%22%20style%3D%22ellipse%3BwhiteSpace%3Dwrap%3Bhtml%3D1%3BfillColor%3Dnone%3B%22%20vertex%3D%221%22%20parent%3D%221%22%3E%3CmxGeometry%20x%3D%2270%22%20y%3D%22140%22%20width%3D%22100%22%20height%3D%2230%22%20as%3D%22geometry%22%2F%3E%3C%2FmxCell%3E%3C%2Froot%3E%3C%2FmxGraphModel%3E&lt;/span&gt;&lt;span style=&quot;color: rgba(0, 0, 0, 0); font-family: monospace; font-size: 0px; text-align: start; text-wrap-mode: nowrap;&quot;&gt;%3CmxGraphModel%3E%3Croot%3E%3CmxCell%20id%3D%220%22%2F%3E%3CmxCell%20id%3D%221%22%20parent%3D%220%22%2F%3E%3CmxCell%20id%3D%222%22%20value%3D%22Home%22%20style%3D%22ellipse%3BwhiteSpace%3Dwrap%3Bhtml%3D1%3BfillColor%3Dnone%3B%22%20vertex%3D%221%22%20parent%3D%221%22%3E%3CmxGeometry%20x%3D%2270%22%20y%3D%22140%22%20width%3D%22100%22%20height%3D%2230%22%20as%3D%22geometry%22%2F%3E%3C%2FmxCell%3E%3C%2Froot%3E%3C%2FmxGraphModel%3E&lt;/span&gt;" style="ellipse;whiteSpace=wrap;html=1;fillColor=none;" parent="1" vertex="1">
          <mxGeometry x="52.25" y="170" width="91" height="20" as="geometry" />
        </mxCell>
        <mxCell id="gKEJSpMiYyEBTIHVQDG1-8" value="notifications&lt;span style=&quot;color: rgba(0, 0, 0, 0); font-family: monospace; font-size: 0px; text-align: start; text-wrap-mode: nowrap;&quot;&gt;%3CmxGraphModel%3E%3Croot%3E%3CmxCell%20id%3D%220%22%2F%3E%3CmxCell%20id%3D%221%22%20parent%3D%220%22%2F%3E%3CmxCell%20id%3D%222%22%20value%3D%22Home%22%20style%3D%22ellipse%3BwhiteSpace%3Dwrap%3Bhtml%3D1%3BfillColor%3Dnone%3B%22%20vertex%3D%221%22%20parent%3D%221%22%3E%3CmxGeometry%20x%3D%2270%22%20y%3D%22140%22%20width%3D%22100%22%20height%3D%2230%22%20as%3D%22geometry%22%2F%3E%3C%2FmxCell%3E%3C%2Froot%3E%3C%2FmxGraphModel%3E&lt;/span&gt;" style="ellipse;whiteSpace=wrap;html=1;fillColor=none;" parent="1" vertex="1">
          <mxGeometry x="52.25" y="200" width="87.75" height="20" as="geometry" />
        </mxCell>
        <mxCell id="gKEJSpMiYyEBTIHVQDG1-9" value="Message" style="ellipse;whiteSpace=wrap;html=1;fillColor=none;" parent="1" vertex="1">
          <mxGeometry x="52.25" y="230" width="97.75" height="20" as="geometry" />
        </mxCell>
        <mxCell id="gKEJSpMiYyEBTIHVQDG1-10" value="Grok&lt;span style=&quot;color: rgba(0, 0, 0, 0); font-family: monospace; font-size: 0px; text-align: start; text-wrap-mode: nowrap;&quot;&gt;%3CmxGraphModel%3E%3Croot%3E%3CmxCell%20id%3D%220%22%2F%3E%3CmxCell%20id%3D%221%22%20parent%3D%220%22%2F%3E%3CmxCell%20id%3D%222%22%20value%3D%22Message%22%20style%3D%22ellipse%3BwhiteSpace%3Dwrap%3Bhtml%3D1%3BfillColor%3Dnone%3B%22%20vertex%3D%221%22%20parent%3D%221%22%3E%3CmxGeometry%20x%3D%2270%22%20y%3D%22230%22%20width%3D%22100%22%20height%3D%2230%22%20as%3D%22geometry%22%2F%3E%3C%2FmxCell%3E%3C%2Froot%3E%3C%2FmxGraphModel%3E&lt;/span&gt;" style="ellipse;whiteSpace=wrap;html=1;fillColor=none;" parent="1" vertex="1">
          <mxGeometry x="48.88" y="260" width="97.75" height="20" as="geometry" />
        </mxCell>
        <mxCell id="gKEJSpMiYyEBTIHVQDG1-11" value="Communities" style="ellipse;whiteSpace=wrap;html=1;fillColor=none;" parent="1" vertex="1">
          <mxGeometry x="49" y="290" width="100" height="20" as="geometry" />
        </mxCell>
        <mxCell id="gKEJSpMiYyEBTIHVQDG1-12" value="Premium" style="ellipse;whiteSpace=wrap;html=1;fillColor=none;" parent="1" vertex="1">
          <mxGeometry x="50" y="320" width="83.37" height="20" as="geometry" />
        </mxCell>
        <mxCell id="gKEJSpMiYyEBTIHVQDG1-13" value="Verified Orgs" style="ellipse;whiteSpace=wrap;html=1;fillColor=none;" parent="1" vertex="1">
          <mxGeometry x="51.13" y="350" width="88.87" height="20" as="geometry" />
        </mxCell>
        <mxCell id="gKEJSpMiYyEBTIHVQDG1-14" value="Profile" style="ellipse;whiteSpace=wrap;html=1;fillColor=none;" parent="1" vertex="1">
          <mxGeometry x="51.13" y="380" width="93.37" height="20" as="geometry" />
        </mxCell>
        <mxCell id="gKEJSpMiYyEBTIHVQDG1-15" value="More" style="ellipse;whiteSpace=wrap;html=1;fillColor=none;" parent="1" vertex="1">
          <mxGeometry x="49.44" y="410" width="87.75" height="20" as="geometry" />
        </mxCell>
        <mxCell id="gKEJSpMiYyEBTIHVQDG1-16" value="post" style="ellipse;whiteSpace=wrap;html=1;fillColor=none;" parent="1" vertex="1">
          <mxGeometry x="51.13" y="440" width="88.87" height="20" as="geometry" />
        </mxCell>
        <mxCell id="gKEJSpMiYyEBTIHVQDG1-17" value="Register" style="text;html=1;align=center;verticalAlign=middle;whiteSpace=wrap;rounded=0;" parent="1" vertex="1">
          <mxGeometry x="80" y="480" width="60" height="30" as="geometry" />
        </mxCell>
        <mxCell id="gKEJSpMiYyEBTIHVQDG1-18" value="" style="endArrow=none;html=1;rounded=0;exitX=0.004;exitY=0.138;exitDx=0;exitDy=0;exitPerimeter=0;entryX=1.001;entryY=0.133;entryDx=0;entryDy=0;entryPerimeter=0;" parent="1" edge="1">
          <mxGeometry width="50" height="50" relative="1" as="geometry">
            <mxPoint x="55.170000000000016" y="121.75999999999999" as="sourcePoint" />
            <mxPoint x="782.98" y="119.15999999999997" as="targetPoint" />
          </mxGeometry>
        </mxCell>
        <mxCell id="gKEJSpMiYyEBTIHVQDG1-20" value="For you" style="rounded=0;whiteSpace=wrap;html=1;" parent="1" vertex="1">
          <mxGeometry x="250" y="85" width="80" height="25" as="geometry" />
        </mxCell>
        <mxCell id="gKEJSpMiYyEBTIHVQDG1-21" value="Following" style="rounded=0;whiteSpace=wrap;html=1;" parent="1" vertex="1">
          <mxGeometry x="374" y="85" width="80" height="25" as="geometry" />
        </mxCell>
        <mxCell id="gKEJSpMiYyEBTIHVQDG1-22" value="" style="endArrow=none;html=1;rounded=0;exitX=0.004;exitY=0.138;exitDx=0;exitDy=0;exitPerimeter=0;" parent="1" edge="1">
          <mxGeometry width="50" height="50" relative="1" as="geometry">
            <mxPoint x="160" y="50" as="sourcePoint" />
            <mxPoint x="160" y="780" as="targetPoint" />
          </mxGeometry>
        </mxCell>
        <mxCell id="gKEJSpMiYyEBTIHVQDG1-23" value="" style="endArrow=none;html=1;rounded=0;entryX=1.003;entryY=0.284;entryDx=0;entryDy=0;entryPerimeter=0;" parent="1" edge="1">
          <mxGeometry width="50" height="50" relative="1" as="geometry">
            <mxPoint x="157.81" y="202.32" as="sourcePoint" />
            <mxPoint x="779" y="199.99999999999994" as="targetPoint" />
          </mxGeometry>
        </mxCell>
        <mxCell id="gKEJSpMiYyEBTIHVQDG1-25" value="" style="ellipse;whiteSpace=wrap;html=1;fillColor=none;" parent="1" vertex="1">
          <mxGeometry x="180" y="220" width="40" height="40" as="geometry" />
        </mxCell>
        <mxCell id="gKEJSpMiYyEBTIHVQDG1-28" value="" style="whiteSpace=wrap;html=1;shape=umlActor;verticalLabelPosition=bottom;verticalAlign=top;outlineConnect=0;" parent="1" vertex="1">
          <mxGeometry x="195" y="140" width="10" height="20" as="geometry" />
        </mxCell>
        <mxCell id="gKEJSpMiYyEBTIHVQDG1-29" value="&lt;font style=&quot;font-size: 16px;&quot;&gt;What is happening?!&lt;/font&gt;" style="text;html=1;align=center;verticalAlign=middle;whiteSpace=wrap;rounded=0;" parent="1" vertex="1">
          <mxGeometry x="220" y="160" width="150" as="geometry" />
        </mxCell>
        <mxCell id="gKEJSpMiYyEBTIHVQDG1-30" value="post" style="ellipse;whiteSpace=wrap;html=1;fillColor=#b1ddf0;strokeColor=#10739e;" parent="1" vertex="1">
          <mxGeometry x="670" y="170" width="58.87" height="20" as="geometry" />
        </mxCell>
        <mxCell id="gKEJSpMiYyEBTIHVQDG1-32" value="" style="whiteSpace=wrap;html=1;aspect=fixed;" parent="1" vertex="1">
          <mxGeometry x="205" y="180" width="20" height="20" as="geometry" />
        </mxCell>
        <mxCell id="gKEJSpMiYyEBTIHVQDG1-33" value="" style="whiteSpace=wrap;html=1;aspect=fixed;" parent="1" vertex="1">
          <mxGeometry x="240" y="180" width="20" height="20" as="geometry" />
        </mxCell>
        <mxCell id="gKEJSpMiYyEBTIHVQDG1-34" value="" style="whiteSpace=wrap;html=1;aspect=fixed;" parent="1" vertex="1">
          <mxGeometry x="280" y="180" width="20" height="20" as="geometry" />
        </mxCell>
        <mxCell id="gKEJSpMiYyEBTIHVQDG1-37" value="" style="whiteSpace=wrap;html=1;aspect=fixed;" parent="1" vertex="1">
          <mxGeometry x="320" y="180" width="20" height="20" as="geometry" />
        </mxCell>
        <mxCell id="gKEJSpMiYyEBTIHVQDG1-38" value="" style="whiteSpace=wrap;html=1;aspect=fixed;" parent="1" vertex="1">
          <mxGeometry x="360" y="180" width="20" height="20" as="geometry" />
        </mxCell>
        <mxCell id="gKEJSpMiYyEBTIHVQDG1-39" value="" style="endArrow=none;html=1;rounded=0;entryX=1;entryY=0;entryDx=0;entryDy=0;exitX=1;exitY=0;exitDx=0;exitDy=0;" parent="1" target="gKEJSpMiYyEBTIHVQDG1-38" edge="1">
          <mxGeometry width="50" height="50" relative="1" as="geometry">
            <mxPoint x="360" y="200" as="sourcePoint" />
            <mxPoint x="410" y="150" as="targetPoint" />
          </mxGeometry>
        </mxCell>
        <mxCell id="gKEJSpMiYyEBTIHVQDG1-40" value="" style="endArrow=none;html=1;rounded=0;entryX=1;entryY=0;entryDx=0;entryDy=0;exitX=1;exitY=0;exitDx=0;exitDy=0;" parent="1" edge="1">
          <mxGeometry width="50" height="50" relative="1" as="geometry">
            <mxPoint x="320" y="200" as="sourcePoint" />
            <mxPoint x="340" y="180" as="targetPoint" />
          </mxGeometry>
        </mxCell>
        <mxCell id="gKEJSpMiYyEBTIHVQDG1-41" value="" style="endArrow=none;html=1;rounded=0;entryX=1;entryY=0;entryDx=0;entryDy=0;exitX=1;exitY=0;exitDx=0;exitDy=0;" parent="1" edge="1">
          <mxGeometry width="50" height="50" relative="1" as="geometry">
            <mxPoint x="280" y="200" as="sourcePoint" />
            <mxPoint x="300" y="180" as="targetPoint" />
          </mxGeometry>
        </mxCell>
        <mxCell id="gKEJSpMiYyEBTIHVQDG1-42" value="" style="endArrow=none;html=1;rounded=0;entryX=1;entryY=0;entryDx=0;entryDy=0;exitX=1;exitY=0;exitDx=0;exitDy=0;" parent="1" edge="1">
          <mxGeometry width="50" height="50" relative="1" as="geometry">
            <mxPoint x="240" y="200" as="sourcePoint" />
            <mxPoint x="260" y="180" as="targetPoint" />
          </mxGeometry>
        </mxCell>
        <mxCell id="gKEJSpMiYyEBTIHVQDG1-45" value="" style="endArrow=none;html=1;rounded=0;entryX=1;entryY=0;entryDx=0;entryDy=0;exitX=1;exitY=0;exitDx=0;exitDy=0;" parent="1" edge="1">
          <mxGeometry width="50" height="50" relative="1" as="geometry">
            <mxPoint x="205" y="200" as="sourcePoint" />
            <mxPoint x="225" y="180" as="targetPoint" />
          </mxGeometry>
        </mxCell>
        <mxCell id="gKEJSpMiYyEBTIHVQDG1-46" value="" style="endArrow=none;html=1;rounded=0;entryX=0;entryY=0;entryDx=0;entryDy=0;exitX=1;exitY=1;exitDx=0;exitDy=0;" parent="1" source="gKEJSpMiYyEBTIHVQDG1-32" target="gKEJSpMiYyEBTIHVQDG1-32" edge="1">
          <mxGeometry width="50" height="50" relative="1" as="geometry">
            <mxPoint x="215" y="210" as="sourcePoint" />
            <mxPoint x="235" y="190" as="targetPoint" />
          </mxGeometry>
        </mxCell>
        <mxCell id="gKEJSpMiYyEBTIHVQDG1-47" value="" style="endArrow=none;html=1;rounded=0;entryX=0;entryY=0;entryDx=0;entryDy=0;exitX=1;exitY=1;exitDx=0;exitDy=0;" parent="1" edge="1">
          <mxGeometry width="50" height="50" relative="1" as="geometry">
            <mxPoint x="260" y="200" as="sourcePoint" />
            <mxPoint x="240" y="180" as="targetPoint" />
          </mxGeometry>
        </mxCell>
        <mxCell id="gKEJSpMiYyEBTIHVQDG1-48" value="" style="endArrow=none;html=1;rounded=0;entryX=0;entryY=0;entryDx=0;entryDy=0;exitX=1;exitY=1;exitDx=0;exitDy=0;" parent="1" edge="1">
          <mxGeometry width="50" height="50" relative="1" as="geometry">
            <mxPoint x="300" y="200" as="sourcePoint" />
            <mxPoint x="280" y="180" as="targetPoint" />
          </mxGeometry>
        </mxCell>
        <mxCell id="gKEJSpMiYyEBTIHVQDG1-49" value="" style="endArrow=none;html=1;rounded=0;entryX=0;entryY=0;entryDx=0;entryDy=0;exitX=1;exitY=1;exitDx=0;exitDy=0;" parent="1" edge="1">
          <mxGeometry width="50" height="50" relative="1" as="geometry">
            <mxPoint x="340" y="200" as="sourcePoint" />
            <mxPoint x="320" y="180" as="targetPoint" />
          </mxGeometry>
        </mxCell>
        <mxCell id="gKEJSpMiYyEBTIHVQDG1-50" value="" style="endArrow=none;html=1;rounded=0;entryX=0;entryY=0;entryDx=0;entryDy=0;exitX=1;exitY=1;exitDx=0;exitDy=0;" parent="1" edge="1">
          <mxGeometry width="50" height="50" relative="1" as="geometry">
            <mxPoint x="380" y="200" as="sourcePoint" />
            <mxPoint x="360" y="180" as="targetPoint" />
          </mxGeometry>
        </mxCell>
        <mxCell id="gKEJSpMiYyEBTIHVQDG1-51" value="" style="endArrow=none;html=1;rounded=0;" parent="1" edge="1">
          <mxGeometry width="50" height="50" relative="1" as="geometry">
            <mxPoint x="157.81" y="462.31999999999994" as="sourcePoint" />
            <mxPoint x="600" y="462" as="targetPoint" />
          </mxGeometry>
        </mxCell>
        <mxCell id="gKEJSpMiYyEBTIHVQDG1-52" value="" style="ellipse;whiteSpace=wrap;html=1;fillColor=none;" parent="1" vertex="1">
          <mxGeometry x="180" y="130" width="40" height="40" as="geometry" />
        </mxCell>
        <mxCell id="gKEJSpMiYyEBTIHVQDG1-55" value="" style="whiteSpace=wrap;html=1;shape=umlActor;verticalLabelPosition=bottom;verticalAlign=top;outlineConnect=0;" parent="1" vertex="1">
          <mxGeometry x="195" y="230" width="10" height="20" as="geometry" />
        </mxCell>
        <mxCell id="gKEJSpMiYyEBTIHVQDG1-56" value="" style="rounded=0;whiteSpace=wrap;html=1;fillColor=none;" parent="1" vertex="1">
          <mxGeometry x="250" y="220" width="90" height="20" as="geometry" />
        </mxCell>
        <mxCell id="gKEJSpMiYyEBTIHVQDG1-57" value="" style="endArrow=none;html=1;rounded=0;entryX=1;entryY=0;entryDx=0;entryDy=0;exitX=0;exitY=1;exitDx=0;exitDy=0;" parent="1" source="gKEJSpMiYyEBTIHVQDG1-56" target="gKEJSpMiYyEBTIHVQDG1-56" edge="1">
          <mxGeometry width="50" height="50" relative="1" as="geometry">
            <mxPoint x="270" y="290" as="sourcePoint" />
            <mxPoint x="320" y="240" as="targetPoint" />
          </mxGeometry>
        </mxCell>
        <mxCell id="gKEJSpMiYyEBTIHVQDG1-59" value="" style="endArrow=none;html=1;rounded=0;entryX=1;entryY=1;entryDx=0;entryDy=0;exitX=0;exitY=0;exitDx=0;exitDy=0;" parent="1" source="gKEJSpMiYyEBTIHVQDG1-56" target="gKEJSpMiYyEBTIHVQDG1-56" edge="1">
          <mxGeometry width="50" height="50" relative="1" as="geometry">
            <mxPoint x="260" y="250" as="sourcePoint" />
            <mxPoint x="330" y="230" as="targetPoint" />
          </mxGeometry>
        </mxCell>
        <mxCell id="gKEJSpMiYyEBTIHVQDG1-64" value="" style="rounded=0;whiteSpace=wrap;html=1;fillColor=none;" parent="1" vertex="1">
          <mxGeometry x="225" y="130" width="70" height="20" as="geometry" />
        </mxCell>
        <mxCell id="gKEJSpMiYyEBTIHVQDG1-65" value="" style="endArrow=none;html=1;rounded=0;entryX=1;entryY=0;entryDx=0;entryDy=0;exitX=0;exitY=1;exitDx=0;exitDy=0;" parent="1" source="gKEJSpMiYyEBTIHVQDG1-64" target="gKEJSpMiYyEBTIHVQDG1-64" edge="1">
          <mxGeometry width="50" height="50" relative="1" as="geometry">
            <mxPoint x="245" y="200" as="sourcePoint" />
            <mxPoint x="295" y="150" as="targetPoint" />
          </mxGeometry>
        </mxCell>
        <mxCell id="gKEJSpMiYyEBTIHVQDG1-66" value="" style="endArrow=none;html=1;rounded=0;entryX=1;entryY=1;entryDx=0;entryDy=0;exitX=0;exitY=0;exitDx=0;exitDy=0;" parent="1" source="gKEJSpMiYyEBTIHVQDG1-64" target="gKEJSpMiYyEBTIHVQDG1-64" edge="1">
          <mxGeometry width="50" height="50" relative="1" as="geometry">
            <mxPoint x="235" y="160" as="sourcePoint" />
            <mxPoint x="305" y="140" as="targetPoint" />
          </mxGeometry>
        </mxCell>
        <mxCell id="gKEJSpMiYyEBTIHVQDG1-68" value="" style="rounded=0;whiteSpace=wrap;html=1;strokeColor=none;fillColor=#0000CC;" parent="1" vertex="1">
          <mxGeometry x="250" y="270" width="270" height="130" as="geometry" />
        </mxCell>
        <mxCell id="gKEJSpMiYyEBTIHVQDG1-69" value="" style="endArrow=none;html=1;rounded=0;entryX=1;entryY=0;entryDx=0;entryDy=0;exitX=0;exitY=1;exitDx=0;exitDy=0;" parent="1" source="gKEJSpMiYyEBTIHVQDG1-68" target="gKEJSpMiYyEBTIHVQDG1-68" edge="1">
          <mxGeometry width="50" height="50" relative="1" as="geometry">
            <mxPoint x="430" y="410" as="sourcePoint" />
            <mxPoint x="480" y="360" as="targetPoint" />
          </mxGeometry>
        </mxCell>
        <mxCell id="gKEJSpMiYyEBTIHVQDG1-70" value="" style="endArrow=none;html=1;rounded=0;entryX=1;entryY=1;entryDx=0;entryDy=0;exitX=0;exitY=0;exitDx=0;exitDy=0;" parent="1" source="gKEJSpMiYyEBTIHVQDG1-68" target="gKEJSpMiYyEBTIHVQDG1-68" edge="1">
          <mxGeometry width="50" height="50" relative="1" as="geometry">
            <mxPoint x="280" y="470" as="sourcePoint" />
            <mxPoint x="690" y="270" as="targetPoint" />
          </mxGeometry>
        </mxCell>
        <mxCell id="gKEJSpMiYyEBTIHVQDG1-72" value="" style="rounded=0;whiteSpace=wrap;html=1;fillColor=#b1ddf0;strokeColor=#10739e;" parent="1" vertex="1">
          <mxGeometry x="250" y="250" width="240" height="10" as="geometry" />
        </mxCell>
        <mxCell id="gKEJSpMiYyEBTIHVQDG1-73" value="" style="whiteSpace=wrap;html=1;aspect=fixed;fillColor=none;" parent="1" vertex="1">
          <mxGeometry x="195" y="430" width="30" height="30" as="geometry" />
        </mxCell>
        <mxCell id="gKEJSpMiYyEBTIHVQDG1-77" value="" style="whiteSpace=wrap;html=1;aspect=fixed;fillColor=none;" parent="1" vertex="1">
          <mxGeometry x="265" y="430" width="30" height="30" as="geometry" />
        </mxCell>
        <mxCell id="gKEJSpMiYyEBTIHVQDG1-78" value="" style="whiteSpace=wrap;html=1;aspect=fixed;fillColor=none;" parent="1" vertex="1">
          <mxGeometry x="320" y="430" width="30" height="30" as="geometry" />
        </mxCell>
        <mxCell id="gKEJSpMiYyEBTIHVQDG1-79" value="" style="whiteSpace=wrap;html=1;aspect=fixed;fillColor=none;" parent="1" vertex="1">
          <mxGeometry x="370" y="430" width="30" height="30" as="geometry" />
        </mxCell>
        <mxCell id="gKEJSpMiYyEBTIHVQDG1-80" value="" style="endArrow=none;html=1;rounded=0;" parent="1" edge="1">
          <mxGeometry width="50" height="50" relative="1" as="geometry">
            <mxPoint x="195" y="460" as="sourcePoint" />
            <mxPoint x="225" y="430" as="targetPoint" />
          </mxGeometry>
        </mxCell>
        <mxCell id="gKEJSpMiYyEBTIHVQDG1-81" value="" style="endArrow=none;html=1;rounded=0;entryX=1;entryY=0;entryDx=0;entryDy=0;exitX=0;exitY=1;exitDx=0;exitDy=0;" parent="1" source="gKEJSpMiYyEBTIHVQDG1-77" target="gKEJSpMiYyEBTIHVQDG1-77" edge="1">
          <mxGeometry width="50" height="50" relative="1" as="geometry">
            <mxPoint x="210" y="530" as="sourcePoint" />
            <mxPoint x="240" y="500" as="targetPoint" />
          </mxGeometry>
        </mxCell>
        <mxCell id="gKEJSpMiYyEBTIHVQDG1-82" value="" style="endArrow=none;html=1;rounded=0;entryX=1;entryY=0;entryDx=0;entryDy=0;exitX=0;exitY=1;exitDx=0;exitDy=0;" parent="1" source="gKEJSpMiYyEBTIHVQDG1-78" target="gKEJSpMiYyEBTIHVQDG1-78" edge="1">
          <mxGeometry width="50" height="50" relative="1" as="geometry">
            <mxPoint x="220" y="540" as="sourcePoint" />
            <mxPoint x="250" y="510" as="targetPoint" />
          </mxGeometry>
        </mxCell>
        <mxCell id="gKEJSpMiYyEBTIHVQDG1-83" value="" style="endArrow=none;html=1;rounded=0;entryX=1;entryY=0;entryDx=0;entryDy=0;exitX=0;exitY=1;exitDx=0;exitDy=0;" parent="1" edge="1">
          <mxGeometry width="50" height="50" relative="1" as="geometry">
            <mxPoint x="370" y="460" as="sourcePoint" />
            <mxPoint x="400" y="430" as="targetPoint" />
          </mxGeometry>
        </mxCell>
        <mxCell id="gKEJSpMiYyEBTIHVQDG1-84" value="" style="endArrow=none;html=1;rounded=0;entryX=0;entryY=0;entryDx=0;entryDy=0;exitX=1;exitY=1;exitDx=0;exitDy=0;" parent="1" source="gKEJSpMiYyEBTIHVQDG1-73" target="gKEJSpMiYyEBTIHVQDG1-73" edge="1">
          <mxGeometry width="50" height="50" relative="1" as="geometry">
            <mxPoint x="430" y="450" as="sourcePoint" />
            <mxPoint x="480" y="400" as="targetPoint" />
          </mxGeometry>
        </mxCell>
        <mxCell id="gKEJSpMiYyEBTIHVQDG1-85" value="" style="endArrow=none;html=1;rounded=0;entryX=0;entryY=0;entryDx=0;entryDy=0;exitX=1;exitY=1;exitDx=0;exitDy=0;" parent="1" edge="1">
          <mxGeometry width="50" height="50" relative="1" as="geometry">
            <mxPoint x="295" y="460" as="sourcePoint" />
            <mxPoint x="265" y="430" as="targetPoint" />
          </mxGeometry>
        </mxCell>
        <mxCell id="gKEJSpMiYyEBTIHVQDG1-86" value="" style="endArrow=none;html=1;rounded=0;entryX=0;entryY=0;entryDx=0;entryDy=0;exitX=1;exitY=1;exitDx=0;exitDy=0;" parent="1" edge="1">
          <mxGeometry width="50" height="50" relative="1" as="geometry">
            <mxPoint x="350" y="460" as="sourcePoint" />
            <mxPoint x="320" y="430" as="targetPoint" />
          </mxGeometry>
        </mxCell>
        <mxCell id="gKEJSpMiYyEBTIHVQDG1-87" value="" style="endArrow=none;html=1;rounded=0;entryX=0;entryY=0;entryDx=0;entryDy=0;exitX=1;exitY=1;exitDx=0;exitDy=0;" parent="1" source="gKEJSpMiYyEBTIHVQDG1-79" edge="1">
          <mxGeometry width="50" height="50" relative="1" as="geometry">
            <mxPoint x="420" y="480" as="sourcePoint" />
            <mxPoint x="370" y="430" as="targetPoint" />
          </mxGeometry>
        </mxCell>
        <mxCell id="gKEJSpMiYyEBTIHVQDG1-92" value="" style="shape=note;whiteSpace=wrap;html=1;backgroundOutline=1;darkOpacity=0.05;size=14;" parent="1" vertex="1">
          <mxGeometry x="494.43" y="430" width="25.57" height="30" as="geometry" />
        </mxCell>
        <mxCell id="gKEJSpMiYyEBTIHVQDG1-94" value="" style="shape=offPageConnector;whiteSpace=wrap;html=1;size=0.3333333333333333;" parent="1" vertex="1">
          <mxGeometry x="540" y="430" width="20" height="30" as="geometry" />
        </mxCell>
        <mxCell id="gKEJSpMiYyEBTIHVQDG1-95" value="" style="endArrow=none;html=1;rounded=0;" parent="1" edge="1">
          <mxGeometry width="50" height="50" relative="1" as="geometry">
            <mxPoint x="600" y="200" as="sourcePoint" />
            <mxPoint x="600" y="780" as="targetPoint" />
          </mxGeometry>
        </mxCell>
        <mxCell id="gKEJSpMiYyEBTIHVQDG1-107" value="" style="strokeWidth=2;html=1;shape=mxgraph.flowchart.terminator;whiteSpace=wrap;fillColor=none;" parent="1" vertex="1">
          <mxGeometry x="620" y="215" width="180" height="160" as="geometry" />
        </mxCell>
        <mxCell id="gKEJSpMiYyEBTIHVQDG1-108" value="" style="rounded=0;whiteSpace=wrap;html=1;fillColor=#b0e3e6;strokeColor=#0e8088;" parent="1" vertex="1">
          <mxGeometry x="678.87" y="240" width="41.13" height="25" as="geometry" />
        </mxCell>
        <mxCell id="gKEJSpMiYyEBTIHVQDG1-109" value="" style="endArrow=none;html=1;rounded=0;entryX=1;entryY=0;entryDx=0;entryDy=0;exitX=0;exitY=1;exitDx=0;exitDy=0;" parent="1" source="gKEJSpMiYyEBTIHVQDG1-108" target="gKEJSpMiYyEBTIHVQDG1-108" edge="1">
          <mxGeometry width="50" height="50" relative="1" as="geometry">
            <mxPoint x="690" y="365" as="sourcePoint" />
            <mxPoint x="740" y="315" as="targetPoint" />
          </mxGeometry>
        </mxCell>
        <mxCell id="gKEJSpMiYyEBTIHVQDG1-110" value="" style="endArrow=none;html=1;rounded=0;entryX=1;entryY=1;entryDx=0;entryDy=0;exitX=0;exitY=0;exitDx=0;exitDy=0;" parent="1" source="gKEJSpMiYyEBTIHVQDG1-108" target="gKEJSpMiYyEBTIHVQDG1-108" edge="1">
          <mxGeometry width="50" height="50" relative="1" as="geometry">
            <mxPoint x="660" y="295" as="sourcePoint" />
            <mxPoint x="780" y="235" as="targetPoint" />
          </mxGeometry>
        </mxCell>
        <mxCell id="gKEJSpMiYyEBTIHVQDG1-111" value="" style="rounded=0;whiteSpace=wrap;html=1;fillColor=#b0e3e6;strokeColor=#0e8088;" parent="1" vertex="1">
          <mxGeometry x="678.87" y="280" width="41.13" height="25" as="geometry" />
        </mxCell>
        <mxCell id="gKEJSpMiYyEBTIHVQDG1-112" value="" style="endArrow=none;html=1;rounded=0;entryX=1;entryY=0;entryDx=0;entryDy=0;exitX=0;exitY=1;exitDx=0;exitDy=0;" parent="1" source="gKEJSpMiYyEBTIHVQDG1-111" target="gKEJSpMiYyEBTIHVQDG1-111" edge="1">
          <mxGeometry width="50" height="50" relative="1" as="geometry">
            <mxPoint x="690" y="450" as="sourcePoint" />
            <mxPoint x="740" y="400" as="targetPoint" />
          </mxGeometry>
        </mxCell>
        <mxCell id="gKEJSpMiYyEBTIHVQDG1-113" value="" style="endArrow=none;html=1;rounded=0;entryX=1;entryY=1;entryDx=0;entryDy=0;exitX=0;exitY=0;exitDx=0;exitDy=0;" parent="1" source="gKEJSpMiYyEBTIHVQDG1-111" target="gKEJSpMiYyEBTIHVQDG1-111" edge="1">
          <mxGeometry width="50" height="50" relative="1" as="geometry">
            <mxPoint x="660" y="380" as="sourcePoint" />
            <mxPoint x="780" y="320" as="targetPoint" />
          </mxGeometry>
        </mxCell>
        <mxCell id="gKEJSpMiYyEBTIHVQDG1-114" value="" style="rounded=0;whiteSpace=wrap;html=1;fillColor=#b0e3e6;strokeColor=#0e8088;" parent="1" vertex="1">
          <mxGeometry x="678.87" y="320" width="41.13" height="20" as="geometry" />
        </mxCell>
        <mxCell id="gKEJSpMiYyEBTIHVQDG1-115" value="" style="endArrow=none;html=1;rounded=0;entryX=1;entryY=0;entryDx=0;entryDy=0;exitX=0;exitY=1;exitDx=0;exitDy=0;" parent="1" source="gKEJSpMiYyEBTIHVQDG1-114" target="gKEJSpMiYyEBTIHVQDG1-114" edge="1">
          <mxGeometry width="50" height="50" relative="1" as="geometry">
            <mxPoint x="690" y="545" as="sourcePoint" />
            <mxPoint x="740" y="495" as="targetPoint" />
          </mxGeometry>
        </mxCell>
        <mxCell id="gKEJSpMiYyEBTIHVQDG1-116" value="" style="endArrow=none;html=1;rounded=0;entryX=1;entryY=1;entryDx=0;entryDy=0;exitX=0;exitY=0;exitDx=0;exitDy=0;" parent="1" source="gKEJSpMiYyEBTIHVQDG1-114" target="gKEJSpMiYyEBTIHVQDG1-114" edge="1">
          <mxGeometry width="50" height="50" relative="1" as="geometry">
            <mxPoint x="660" y="475" as="sourcePoint" />
            <mxPoint x="780" y="415" as="targetPoint" />
          </mxGeometry>
        </mxCell>
        <mxCell id="gKEJSpMiYyEBTIHVQDG1-120" value="" style="ellipse;whiteSpace=wrap;html=1;fillColor=none;" parent="1" vertex="1">
          <mxGeometry x="190" y="480" width="40" height="40" as="geometry" />
        </mxCell>
        <mxCell id="gKEJSpMiYyEBTIHVQDG1-121" value="" style="whiteSpace=wrap;html=1;shape=umlActor;verticalLabelPosition=bottom;verticalAlign=top;outlineConnect=0;" parent="1" vertex="1">
          <mxGeometry x="205" y="490" width="10" height="20" as="geometry" />
        </mxCell>
        <mxCell id="gKEJSpMiYyEBTIHVQDG1-122" value="" style="rounded=0;whiteSpace=wrap;html=1;fillColor=none;" parent="1" vertex="1">
          <mxGeometry x="260" y="480" width="90" height="20" as="geometry" />
        </mxCell>
        <mxCell id="gKEJSpMiYyEBTIHVQDG1-123" value="" style="endArrow=none;html=1;rounded=0;entryX=1;entryY=0;entryDx=0;entryDy=0;exitX=0;exitY=1;exitDx=0;exitDy=0;" parent="1" source="gKEJSpMiYyEBTIHVQDG1-122" target="gKEJSpMiYyEBTIHVQDG1-122" edge="1">
          <mxGeometry width="50" height="50" relative="1" as="geometry">
            <mxPoint x="280" y="550" as="sourcePoint" />
            <mxPoint x="330" y="500" as="targetPoint" />
          </mxGeometry>
        </mxCell>
        <mxCell id="gKEJSpMiYyEBTIHVQDG1-124" value="" style="endArrow=none;html=1;rounded=0;entryX=1;entryY=1;entryDx=0;entryDy=0;exitX=0;exitY=0;exitDx=0;exitDy=0;" parent="1" source="gKEJSpMiYyEBTIHVQDG1-122" target="gKEJSpMiYyEBTIHVQDG1-122" edge="1">
          <mxGeometry width="50" height="50" relative="1" as="geometry">
            <mxPoint x="270" y="510" as="sourcePoint" />
            <mxPoint x="340" y="490" as="targetPoint" />
          </mxGeometry>
        </mxCell>
        <mxCell id="gKEJSpMiYyEBTIHVQDG1-125" value="" style="rounded=0;whiteSpace=wrap;html=1;strokeColor=none;fillColor=#0000CC;" parent="1" vertex="1">
          <mxGeometry x="260" y="530" width="270" height="130" as="geometry" />
        </mxCell>
        <mxCell id="gKEJSpMiYyEBTIHVQDG1-126" value="" style="endArrow=none;html=1;rounded=0;entryX=1;entryY=0;entryDx=0;entryDy=0;exitX=0;exitY=1;exitDx=0;exitDy=0;" parent="1" source="gKEJSpMiYyEBTIHVQDG1-125" target="gKEJSpMiYyEBTIHVQDG1-125" edge="1">
          <mxGeometry width="50" height="50" relative="1" as="geometry">
            <mxPoint x="440" y="670" as="sourcePoint" />
            <mxPoint x="490" y="620" as="targetPoint" />
          </mxGeometry>
        </mxCell>
        <mxCell id="gKEJSpMiYyEBTIHVQDG1-127" value="" style="endArrow=none;html=1;rounded=0;entryX=1;entryY=1;entryDx=0;entryDy=0;exitX=0;exitY=0;exitDx=0;exitDy=0;" parent="1" source="gKEJSpMiYyEBTIHVQDG1-125" target="gKEJSpMiYyEBTIHVQDG1-125" edge="1">
          <mxGeometry width="50" height="50" relative="1" as="geometry">
            <mxPoint x="290" y="730" as="sourcePoint" />
            <mxPoint x="700" y="530" as="targetPoint" />
          </mxGeometry>
        </mxCell>
        <mxCell id="gKEJSpMiYyEBTIHVQDG1-128" value="" style="rounded=0;whiteSpace=wrap;html=1;fillColor=#b1ddf0;strokeColor=#10739e;" parent="1" vertex="1">
          <mxGeometry x="260" y="510" width="240" height="10" as="geometry" />
        </mxCell>
        <mxCell id="gKEJSpMiYyEBTIHVQDG1-129" value="" style="whiteSpace=wrap;html=1;aspect=fixed;fillColor=none;" parent="1" vertex="1">
          <mxGeometry x="205" y="690" width="30" height="30" as="geometry" />
        </mxCell>
        <mxCell id="gKEJSpMiYyEBTIHVQDG1-130" value="" style="whiteSpace=wrap;html=1;aspect=fixed;fillColor=none;" parent="1" vertex="1">
          <mxGeometry x="275" y="690" width="30" height="30" as="geometry" />
        </mxCell>
        <mxCell id="gKEJSpMiYyEBTIHVQDG1-131" value="" style="whiteSpace=wrap;html=1;aspect=fixed;fillColor=none;" parent="1" vertex="1">
          <mxGeometry x="330" y="690" width="30" height="30" as="geometry" />
        </mxCell>
        <mxCell id="gKEJSpMiYyEBTIHVQDG1-132" value="" style="whiteSpace=wrap;html=1;aspect=fixed;fillColor=none;" parent="1" vertex="1">
          <mxGeometry x="380" y="690" width="30" height="30" as="geometry" />
        </mxCell>
        <mxCell id="gKEJSpMiYyEBTIHVQDG1-133" value="" style="endArrow=none;html=1;rounded=0;" parent="1" edge="1">
          <mxGeometry width="50" height="50" relative="1" as="geometry">
            <mxPoint x="205" y="720" as="sourcePoint" />
            <mxPoint x="235" y="690" as="targetPoint" />
          </mxGeometry>
        </mxCell>
        <mxCell id="gKEJSpMiYyEBTIHVQDG1-134" value="" style="endArrow=none;html=1;rounded=0;entryX=1;entryY=0;entryDx=0;entryDy=0;exitX=0;exitY=1;exitDx=0;exitDy=0;" parent="1" source="gKEJSpMiYyEBTIHVQDG1-130" target="gKEJSpMiYyEBTIHVQDG1-130" edge="1">
          <mxGeometry width="50" height="50" relative="1" as="geometry">
            <mxPoint x="220" y="790" as="sourcePoint" />
            <mxPoint x="250" y="760" as="targetPoint" />
          </mxGeometry>
        </mxCell>
        <mxCell id="gKEJSpMiYyEBTIHVQDG1-135" value="" style="endArrow=none;html=1;rounded=0;entryX=1;entryY=0;entryDx=0;entryDy=0;exitX=0;exitY=1;exitDx=0;exitDy=0;" parent="1" source="gKEJSpMiYyEBTIHVQDG1-131" target="gKEJSpMiYyEBTIHVQDG1-131" edge="1">
          <mxGeometry width="50" height="50" relative="1" as="geometry">
            <mxPoint x="230" y="800" as="sourcePoint" />
            <mxPoint x="260" y="770" as="targetPoint" />
          </mxGeometry>
        </mxCell>
        <mxCell id="gKEJSpMiYyEBTIHVQDG1-136" value="" style="endArrow=none;html=1;rounded=0;entryX=1;entryY=0;entryDx=0;entryDy=0;exitX=0;exitY=1;exitDx=0;exitDy=0;" parent="1" edge="1">
          <mxGeometry width="50" height="50" relative="1" as="geometry">
            <mxPoint x="380" y="720" as="sourcePoint" />
            <mxPoint x="410" y="690" as="targetPoint" />
          </mxGeometry>
        </mxCell>
        <mxCell id="gKEJSpMiYyEBTIHVQDG1-137" value="" style="endArrow=none;html=1;rounded=0;entryX=0;entryY=0;entryDx=0;entryDy=0;exitX=1;exitY=1;exitDx=0;exitDy=0;" parent="1" source="gKEJSpMiYyEBTIHVQDG1-129" target="gKEJSpMiYyEBTIHVQDG1-129" edge="1">
          <mxGeometry width="50" height="50" relative="1" as="geometry">
            <mxPoint x="440" y="710" as="sourcePoint" />
            <mxPoint x="490" y="660" as="targetPoint" />
          </mxGeometry>
        </mxCell>
        <mxCell id="gKEJSpMiYyEBTIHVQDG1-138" value="" style="endArrow=none;html=1;rounded=0;entryX=0;entryY=0;entryDx=0;entryDy=0;exitX=1;exitY=1;exitDx=0;exitDy=0;" parent="1" edge="1">
          <mxGeometry width="50" height="50" relative="1" as="geometry">
            <mxPoint x="305" y="720" as="sourcePoint" />
            <mxPoint x="275" y="690" as="targetPoint" />
          </mxGeometry>
        </mxCell>
        <mxCell id="gKEJSpMiYyEBTIHVQDG1-139" value="" style="endArrow=none;html=1;rounded=0;entryX=0;entryY=0;entryDx=0;entryDy=0;exitX=1;exitY=1;exitDx=0;exitDy=0;" parent="1" edge="1">
          <mxGeometry width="50" height="50" relative="1" as="geometry">
            <mxPoint x="360" y="720" as="sourcePoint" />
            <mxPoint x="330" y="690" as="targetPoint" />
          </mxGeometry>
        </mxCell>
        <mxCell id="gKEJSpMiYyEBTIHVQDG1-140" value="" style="endArrow=none;html=1;rounded=0;entryX=0;entryY=0;entryDx=0;entryDy=0;exitX=1;exitY=1;exitDx=0;exitDy=0;" parent="1" source="gKEJSpMiYyEBTIHVQDG1-132" edge="1">
          <mxGeometry width="50" height="50" relative="1" as="geometry">
            <mxPoint x="430" y="740" as="sourcePoint" />
            <mxPoint x="380" y="690" as="targetPoint" />
          </mxGeometry>
        </mxCell>
        <mxCell id="gKEJSpMiYyEBTIHVQDG1-141" value="" style="shape=note;whiteSpace=wrap;html=1;backgroundOutline=1;darkOpacity=0.05;size=14;" parent="1" vertex="1">
          <mxGeometry x="504.43" y="690" width="25.57" height="30" as="geometry" />
        </mxCell>
        <mxCell id="gKEJSpMiYyEBTIHVQDG1-142" value="" style="shape=offPageConnector;whiteSpace=wrap;html=1;size=0.3333333333333333;" parent="1" vertex="1">
          <mxGeometry x="550" y="690" width="20" height="30" as="geometry" />
        </mxCell>
        <mxCell id="gKEJSpMiYyEBTIHVQDG1-143" value="" style="endArrow=none;html=1;rounded=0;" parent="1" edge="1">
          <mxGeometry width="50" height="50" relative="1" as="geometry">
            <mxPoint x="158.91" y="720.3199999999999" as="sourcePoint" />
            <mxPoint x="601.1" y="720" as="targetPoint" />
          </mxGeometry>
        </mxCell>
      </root>
    </mxGraphModel>
  </diagram>
</mxfile>
